<mxfile host="app.diagrams.net" modified="2020-08-27T14:12:53.173Z" agent="5.0 (Macintosh)" etag="tOZHd8msIVqglTQiaW6Y" version="13.6.5" type="github">
  <diagram id="x1BkITEGjwpWUBxYEY2C" name="Page-1">
    <mxGraphModel dx="557" dy="502" grid="1" gridSize="10" guides="1" tooltips="1" connect="1" arrows="1" fold="1" page="1" pageScale="1" pageWidth="850" pageHeight="1100" math="0" shadow="0">
      <root>
        <mxCell id="0" />
        <mxCell id="1" parent="0" />
        <mxCell id="XisCMlbvz3Q5OAV6_cWn-1" value="Pomi Database" style="shape=datastore;whiteSpace=wrap;html=1;" vertex="1" parent="1">
          <mxGeometry x="245" y="460" width="60" height="60" as="geometry" />
        </mxCell>
        <mxCell id="XisCMlbvz3Q5OAV6_cWn-2" value="Todoist API" style="ellipse;shape=cloud;whiteSpace=wrap;html=1;" vertex="1" parent="1">
          <mxGeometry x="400" y="320" width="120" height="80" as="geometry" />
        </mxCell>
        <mxCell id="XisCMlbvz3Q5OAV6_cWn-7" style="edgeStyle=orthogonalEdgeStyle;rounded=0;orthogonalLoop=1;jettySize=auto;html=1;exitX=1;exitY=0.5;exitDx=0;exitDy=0;startArrow=classic;startFill=1;" edge="1" parent="1" source="XisCMlbvz3Q5OAV6_cWn-3" target="XisCMlbvz3Q5OAV6_cWn-2">
          <mxGeometry relative="1" as="geometry" />
        </mxCell>
        <mxCell id="XisCMlbvz3Q5OAV6_cWn-9" style="edgeStyle=orthogonalEdgeStyle;rounded=0;orthogonalLoop=1;jettySize=auto;html=1;exitX=0.5;exitY=1;exitDx=0;exitDy=0;entryX=0.5;entryY=0;entryDx=0;entryDy=0;startArrow=classic;startFill=1;" edge="1" parent="1" source="XisCMlbvz3Q5OAV6_cWn-3" target="XisCMlbvz3Q5OAV6_cWn-1">
          <mxGeometry relative="1" as="geometry" />
        </mxCell>
        <mxCell id="XisCMlbvz3Q5OAV6_cWn-3" value="Pomi Server" style="shape=process;whiteSpace=wrap;html=1;backgroundOutline=1;" vertex="1" parent="1">
          <mxGeometry x="215" y="330" width="120" height="60" as="geometry" />
        </mxCell>
        <mxCell id="XisCMlbvz3Q5OAV6_cWn-8" style="edgeStyle=orthogonalEdgeStyle;rounded=0;orthogonalLoop=1;jettySize=auto;html=1;exitX=1;exitY=0.5;exitDx=0;exitDy=0;entryX=0;entryY=0.5;entryDx=0;entryDy=0;startArrow=classic;startFill=1;" edge="1" parent="1" source="XisCMlbvz3Q5OAV6_cWn-4" target="XisCMlbvz3Q5OAV6_cWn-3">
          <mxGeometry relative="1" as="geometry" />
        </mxCell>
        <mxCell id="XisCMlbvz3Q5OAV6_cWn-4" value="Pomi Client" style="whiteSpace=wrap;html=1;aspect=fixed;" vertex="1" parent="1">
          <mxGeometry x="50" y="320" width="80" height="80" as="geometry" />
        </mxCell>
      </root>
    </mxGraphModel>
  </diagram>
</mxfile>
